<svg width="21" height="23" viewBox="0 0 21 23" fill="none" xmlns="http://www.w3.org/2000/svg">
<path d="M2.35607 9.67368C2.61923 7.76336 2.75081 6.8082 3.38523 6.2376C4.01965 5.66699 4.95005 5.66699 6.81084 5.66699H7.40801H14.158H14.7552C16.616 5.66699 17.5464 5.66699 18.1808 6.2376C18.8152 6.8082 18.9468 7.76336 19.2099 9.67368L20.1743 16.6737C20.5156 19.152 20.6864 20.3913 20.0135 21.1958C19.3407 22.0003 18.1337 22.0003 15.7195 22.0003H15.283H6.28301H5.84656C3.43242 22.0003 2.22536 22.0003 1.55251 21.1958C0.879672 20.3913 1.05038 19.152 1.39178 16.6737L2.35607 9.67368Z" stroke="white" stroke-linejoin="round"/>
<path d="M7.4082 10.3333V3.33333C7.4082 2.04467 8.41556 1 9.6582 1H11.9082C13.1509 1 14.1582 2.04467 14.1582 3.33333V10.3333" stroke="white" stroke-linecap="round" stroke-linejoin="round"/>
</svg>
