<svg width="27" height="28" viewBox="0 0 27 28" fill="none" xmlns="http://www.w3.org/2000/svg">
<path d="M5.07286 12.1732C5.33602 10.2629 5.4676 9.30771 6.10202 8.73711C6.73645 8.1665 7.66684 8.1665 9.52764 8.1665H10.1248H16.8748H17.472C19.3328 8.1665 20.2632 8.1665 20.8976 8.73711C21.532 9.30771 21.6636 10.2629 21.9267 12.1732L22.8911 19.1732C23.2324 21.6515 23.4032 22.8908 22.7303 23.6953C22.0575 24.4998 20.8504 24.4998 18.4363 24.4998H17.9998H8.99981H8.56335C6.14922 24.4998 4.94216 24.4998 4.26931 23.6953C3.59647 22.8908 3.76718 21.6515 4.10858 19.1732L5.07286 12.1732Z" stroke="white" stroke-linejoin="round"/>
<path d="M10.125 12.8333V5.83333C10.125 4.54467 11.1324 3.5 12.375 3.5H14.625C15.8677 3.5 16.875 4.54467 16.875 5.83333V12.8333" stroke="white" stroke-linecap="round" stroke-linejoin="round"/>
</svg>
