<svg xmlns="http://www.w3.org/2000/svg">
	<symbol id="user" viewBox="0 0 28 28">
		<g>
			<path
				d="M19.8327 9.33333C19.8327 12.555 17.221 15.1667 13.9993 15.1667C10.7777 15.1667 8.16602 12.555 8.16602 9.33333C8.16602 6.11168 10.7777 3.5 13.9993 3.5C17.221 3.5 19.8327 6.11168 19.8327 9.33333Z" />
			<path d="M3.5 24.5002C4.61683 20.9111 7.48998 19.8335 14 19.8335C20.51 19.8335 23.3831 20.9111 24.5 24.5002"
				stroke-linecap="round" />
		</g>
	</symbol>
	<symbol id="heart" viewBox="0 0 27 28">
		<g>
			<path
				d="M5.4927 15.1148L11.8149 22.5248C12.7104 23.5743 14.2896 23.5743 15.1851 22.5248L21.5073 15.1148C23.3893 12.9089 24.367 10.1348 22.953 7.48945C21.3193 4.43308 18.3257 3.8084 15.7242 5.86088C14.8297 6.56655 14.0956 7.3724 13.737 7.7905C13.6125 7.93579 13.3875 7.93579 13.263 7.7905C12.9044 7.3724 12.1702 6.56655 11.2758 5.86088C8.67434 3.8084 5.68063 4.43308 4.04694 7.48945C2.63295 10.1348 3.61065 12.9089 5.4927 15.1148Z"
				stroke-linejoin="round" />
		</g>
	</symbol>
	<symbol id="basket" viewBox="0 0 21 23">
    <g>
      <path d="M2.35607 9.67368C2.61923 7.76336 2.75081 6.8082 3.38523 6.2376C4.01965 5.66699 4.95005 5.66699 6.81084 5.66699H7.40801H14.158H14.7552C16.616 5.66699 17.5464 5.66699 18.1808 6.2376C18.8152 6.8082 18.9468 7.76336 19.2099 9.67368L20.1743 16.6737C20.5156 19.152 20.6864 20.3913 20.0135 21.1958C19.3407 22.0003 18.1337 22.0003 15.7195 22.0003H15.283H6.28301H5.84656C3.43242 22.0003 2.22536 22.0003 1.55251 21.1958C0.879672 20.3913 1.05038 19.152 1.39178 16.6737L2.35607 9.67368Z" stroke-linejoin="round"/>
      <path d="M7.4082 10.3333V3.33333C7.4082 2.04467 8.41556 1 9.6582 1H11.9082C13.1509 1 14.1582 2.04467 14.1582 3.33333V10.3333" stroke-linecap="round" stroke-linejoin="round"/>
    </g>
  </symbol>
	<symbol id="search" viewBox="0 0 28 28">
    <g>
      <path d="M17.5 17.5L24.5 24.5" stroke-linecap="round" stroke-linejoin="round"/>
        <path d="M19.8333 11.6667C19.8333 16.177 16.177 19.8333 11.6667 19.8333C7.15635 19.8333 3.5 16.177 3.5 11.6667C3.5 7.15634 7.15635 3.5 11.6667 3.5C16.177 3.5 19.8333 7.15634 19.8333 11.6667Z" />
    </g>
  </symbol>
</svg>