<svg width="31" height="42" viewBox="0 0 31 42" fill="none" xmlns="http://www.w3.org/2000/svg">
<path d="M13.98 35.8602C14.1088 35.3879 14.2377 34.9586 14.3235 34.5292C14.9246 32.2965 15.5687 30.0638 16.1698 27.7882C16.728 25.8131 17.2432 23.7951 17.8014 21.82C18.1449 20.489 18.5313 19.2009 18.8748 17.8698C19.433 15.8948 19.9482 13.8767 20.5064 11.9017C20.6352 11.4294 20.8069 10.9571 20.8499 10.4848C20.9787 9.54016 20.8928 8.59556 20.4634 7.73683C20.077 6.8781 19.39 6.36286 18.4884 6.10524C18.1449 6.01937 17.8014 5.9335 17.4579 5.84762C17.4579 5.84762 17.4579 5.84762 17.5008 5.84762C17.5438 5.84762 17.5867 5.84762 17.6296 5.84762C20.12 5.84762 22.6103 5.84762 25.1435 5.84762C25.1006 5.89056 25.1006 5.89056 25.0577 5.89056C24.156 6.01937 23.4261 6.49167 22.8679 7.22159C22.4815 7.69389 22.2238 8.25207 21.9662 8.81024C21.5798 9.71191 21.3222 10.6565 21.0646 11.6011C20.7211 12.8463 20.3776 14.0914 20.077 15.3366C19.5188 17.3975 18.9607 19.4585 18.4025 21.5194C17.8873 23.4945 17.3291 25.4267 16.8138 27.4017C16.2557 29.4198 15.7404 31.4378 15.1823 33.4558C14.8388 34.7868 14.4523 36.0749 14.1088 37.4059C13.7654 38.694 13.4219 39.9821 13.0354 41.3132C12.9496 41.5708 12.8208 41.7425 12.649 42.0001C12.6061 41.8713 12.5631 41.7855 12.5631 41.6996C12.2196 40.3686 11.8332 39.0805 11.4897 37.7494C10.7598 35.0874 10.0299 32.4253 9.29996 29.7203C8.78472 27.7882 8.22655 25.8131 7.66838 23.8809C6.93846 21.2189 6.1656 18.5139 5.43568 15.8518C4.8775 13.8767 4.36227 11.9017 3.80409 9.96953C3.63235 9.28254 3.37473 8.59556 3.11711 7.90857C2.60187 6.70635 1.74314 5.97643 0.412109 5.84762C0.412109 5.84762 0.412109 5.84762 0.412109 5.80469C0.455046 5.80469 0.540919 5.80469 0.583855 5.80469C3.63235 5.80469 6.72377 5.80469 9.77226 5.80469C9.77226 5.80469 9.8152 5.80469 9.8152 5.84762C9.3429 5.9335 8.8706 6.01937 8.44123 6.27699C7.88306 6.53461 7.45369 6.92104 7.15314 7.47921C6.93846 7.86564 6.85258 8.33794 6.85258 8.7673C6.89552 9.45429 7.1102 10.0983 7.28195 10.7424C7.88306 13.018 8.48417 15.2936 9.08528 17.5693C9.42877 18.9003 9.77226 20.1884 10.1158 21.5194C10.631 23.4945 11.1462 25.4696 11.6615 27.4017C12.1767 29.3768 12.7349 31.3948 13.2501 33.3699C13.4648 34.1428 13.6365 34.8727 13.8512 35.6455C13.9371 35.7744 13.9371 35.8173 13.98 35.8602Z" fill="#E84F1F"/>
<path d="M19.905 11.2576C19.6474 12.2451 19.3468 13.2326 19.0892 14.2202C19.0463 14.2202 19.0033 14.2202 18.9604 14.1772C17.844 13.4903 16.7277 12.8462 15.7401 11.9875C15.0532 11.3864 14.4091 10.7423 13.8939 9.96947C13.0781 8.68137 12.7346 7.26447 12.9493 5.71875C13.121 4.25891 13.7221 3.05669 14.7955 2.06915C15.6543 1.25336 16.6418 0.738122 17.7582 0.39463C19.1321 -0.0347351 20.549 -0.0776716 21.9659 0.0940743C23.4258 0.308757 24.7997 0.738122 26.0878 1.42511C26.5172 1.68272 26.9466 1.98328 27.3759 2.2409C27.4618 2.28384 27.5047 2.36971 27.5047 2.45558C27.5047 2.49852 27.5047 2.49852 27.5047 2.54145C27.5047 4.81709 27.5047 7.09272 27.5047 9.32542C27.5047 9.36835 27.5047 9.36836 27.4618 9.41129C27.4189 9.23955 27.4189 9.0678 27.3759 8.93899C27.2471 7.60796 26.9466 6.31986 26.4313 5.07471C26.0449 4.1301 25.5297 3.22844 24.7997 2.45558C23.941 1.42511 22.7817 0.823995 21.3648 0.609312C20.4202 0.480503 19.5186 0.480503 18.6169 0.695185C17.9299 0.866931 17.2859 1.16749 16.7277 1.63979C16.1266 2.19796 15.6972 2.88495 15.4825 3.70074C15.182 4.9459 15.2678 6.19106 15.826 7.35034C16.2124 8.1232 16.7706 8.76724 17.3717 9.36836C17.9728 9.92653 18.6598 10.4418 19.3897 10.8711C19.5615 11.0429 19.7332 11.1288 19.905 11.2576Z" fill="white"/>
<path d="M20.935 15.0788C21.2355 14.0913 21.4931 13.1467 21.7937 12.1162C21.8796 12.1591 21.9225 12.2021 22.0084 12.2021C22.7812 12.6744 23.5111 13.1038 24.284 13.5761C25.2286 14.2201 26.2161 14.8212 27.1178 15.5511C27.8048 16.1522 28.4488 16.7534 28.9211 17.5262C29.3934 18.2132 29.7369 18.986 29.9087 19.8018C30.1234 20.9611 30.0804 22.0775 29.6511 23.1938C29.3076 24.0955 28.7494 24.8683 28.0624 25.5124C27.2896 26.2423 26.3879 26.6717 25.4003 27.0152C24.3699 27.3587 23.2965 27.5304 22.223 27.5733C21.1067 27.6163 19.9903 27.4875 18.9169 27.3157C18.4876 27.2299 18.0153 27.144 17.543 27.0152C17.6718 26.5858 17.8006 26.1564 17.9294 25.7271C17.9723 25.77 18.0582 25.77 18.1011 25.813C19.0887 26.5858 20.248 26.9293 21.4931 27.0152C22.4377 27.101 23.3823 27.0152 24.284 26.8005C25.0139 26.5858 25.7009 26.2852 26.2591 25.77C26.9461 25.126 27.4184 24.3531 27.5901 23.4514C27.7619 22.5498 27.7189 21.6481 27.4184 20.7894C27.1607 20.0165 26.7314 19.2866 26.1303 18.6855C25.4003 17.9126 24.5846 17.2257 23.6829 16.6675C23.2106 16.3669 22.7383 16.0664 22.3089 15.8087C21.7937 15.5941 21.4073 15.3364 20.935 15.0788Z" fill="white"/>
<path d="M13.207 15.9804C13.2499 16.4527 13.2929 16.8821 13.3358 17.3544C13.5076 18.8142 13.8081 20.2311 14.3663 21.5622C14.7527 22.4638 15.225 23.3226 15.8261 24.0954C15.9979 24.3101 16.2126 24.5248 16.3843 24.7395C16.4272 24.8254 16.5131 24.8683 16.4702 24.9542C16.2984 25.4694 16.1696 25.9846 15.9979 26.4999C15.9979 26.4999 15.9979 26.5428 15.9549 26.5428C15.6973 26.4569 15.4397 26.414 15.1821 26.2852C14.538 26.0276 13.9369 25.727 13.2929 25.4265C13.207 25.3835 13.1641 25.3406 13.1641 25.2118C13.1641 25.1688 13.1641 25.1259 13.1641 25.083C13.1641 22.1633 13.1641 19.2007 13.1641 16.281C13.1641 16.1522 13.1641 16.0234 13.1641 15.9375C13.1641 15.9804 13.207 15.9804 13.207 15.9804Z" fill="white"/>
</svg>
